<mxfile host="Electron" agent="Mozilla/5.0 (Windows NT 10.0; Win64; x64) AppleWebKit/537.36 (KHTML, like Gecko) draw.io/26.0.15 Chrome/132.0.6834.196 Electron/34.2.0 Safari/537.36" version="26.0.15">
  <diagram name="Page-1" id="odICe4tR4dPm_PyxJ30F">
    <mxGraphModel dx="2580" dy="532" grid="1" gridSize="10" guides="1" tooltips="1" connect="1" arrows="1" fold="1" page="1" pageScale="1" pageWidth="850" pageHeight="1100" math="0" shadow="0">
      <root>
        <mxCell id="0" />
        <mxCell id="1" parent="0" />
        <mxCell id="v3zNFvLb96tHzi2F_7EQ-2" value="&lt;span style=&quot;font-weight: normal;&quot;&gt;Ferramenta para&lt;/span&gt;&lt;div&gt;&lt;span style=&quot;font-weight: normal;&quot;&gt;geração de horários&lt;/span&gt;&lt;/div&gt;" style="rounded=0;whiteSpace=wrap;html=1;labelBorderColor=none;textShadow=0;fontSize=16;fontStyle=1" parent="1" vertex="1">
          <mxGeometry x="-581.2" y="35" width="280" height="260" as="geometry" />
        </mxCell>
        <mxCell id="v3zNFvLb96tHzi2F_7EQ-4" value="" style="endArrow=classic;html=1;rounded=0;edgeStyle=orthogonalEdgeStyle;" parent="1" source="xEwKgiD-SIQyZzkMuDlU-2" target="v3zNFvLb96tHzi2F_7EQ-2" edge="1">
          <mxGeometry width="50" height="50" relative="1" as="geometry">
            <mxPoint x="-730" y="165" as="sourcePoint" />
            <mxPoint x="-390" y="180" as="targetPoint" />
            <Array as="points">
              <mxPoint x="-690" y="165" />
              <mxPoint x="-690" y="165" />
            </Array>
          </mxGeometry>
        </mxCell>
        <mxCell id="v3zNFvLb96tHzi2F_7EQ-13" value="&lt;span style=&quot;font-weight: normal;&quot;&gt;1: Introdução&lt;/span&gt;&lt;div&gt;&lt;span style=&quot;font-weight: normal;&quot;&gt;dos dados&lt;/span&gt;&lt;/div&gt;" style="edgeLabel;html=1;align=center;verticalAlign=middle;resizable=0;points=[];fontSize=16;fontStyle=1;labelBackgroundColor=none;" parent="v3zNFvLb96tHzi2F_7EQ-4" vertex="1" connectable="0">
          <mxGeometry x="-0.3167" y="-4" relative="1" as="geometry">
            <mxPoint x="28" y="17" as="offset" />
          </mxGeometry>
        </mxCell>
        <mxCell id="v3zNFvLb96tHzi2F_7EQ-6" value="" style="endArrow=classic;html=1;rounded=0;edgeStyle=orthogonalEdgeStyle;" parent="1" source="v3zNFvLb96tHzi2F_7EQ-2" target="xEwKgiD-SIQyZzkMuDlU-3" edge="1">
          <mxGeometry width="50" height="50" relative="1" as="geometry">
            <mxPoint x="-270" y="300" as="sourcePoint" />
            <mxPoint x="-130" y="165" as="targetPoint" />
          </mxGeometry>
        </mxCell>
        <mxCell id="v3zNFvLb96tHzi2F_7EQ-16" value="&lt;span style=&quot;font-weight: normal;&quot;&gt;6: Exportação dos&lt;/span&gt;&lt;div&gt;&lt;span style=&quot;font-weight: normal;&quot;&gt;horários gerados&lt;/span&gt;&lt;/div&gt;" style="edgeLabel;html=1;align=center;verticalAlign=middle;resizable=0;points=[];fontSize=16;fontStyle=1;labelBackgroundColor=none;" parent="v3zNFvLb96tHzi2F_7EQ-6" vertex="1" connectable="0">
          <mxGeometry x="-0.2655" y="2" relative="1" as="geometry">
            <mxPoint x="26" y="22" as="offset" />
          </mxGeometry>
        </mxCell>
        <mxCell id="v3zNFvLb96tHzi2F_7EQ-8" value="&lt;span style=&quot;font-weight: normal;&quot;&gt;Utilizador&lt;/span&gt;" style="shape=actor;whiteSpace=wrap;html=1;labelPosition=center;verticalLabelPosition=bottom;align=center;verticalAlign=top;fontStyle=1;fontSize=16;" parent="1" vertex="1">
          <mxGeometry x="-466.2" y="440" width="50" height="60" as="geometry" />
        </mxCell>
        <mxCell id="v3zNFvLb96tHzi2F_7EQ-11" value="" style="shape=ellipse;fillColor=none;strokeColor=none;html=1;sketch=0;" parent="1" vertex="1">
          <mxGeometry x="-466.2" y="471" width="10" height="8.5" as="geometry" />
        </mxCell>
        <mxCell id="v3zNFvLb96tHzi2F_7EQ-12" value="" style="endArrow=classic;html=1;rounded=0;edgeStyle=orthogonalEdgeStyle;" parent="1" source="v3zNFvLb96tHzi2F_7EQ-11" target="v3zNFvLb96tHzi2F_7EQ-2" edge="1">
          <mxGeometry width="50" height="50" relative="1" as="geometry">
            <mxPoint x="-496.2" y="390" as="sourcePoint" />
            <mxPoint x="-526.2" y="310" as="targetPoint" />
            <Array as="points">
              <mxPoint x="-556.2" y="475" />
            </Array>
          </mxGeometry>
        </mxCell>
        <mxCell id="v3zNFvLb96tHzi2F_7EQ-15" value="&lt;span style=&quot;font-weight: normal;&quot;&gt;3: Pedido p&lt;span style=&quot;color: light-dark(rgb(0, 0, 0), rgb(255, 255, 255));&quot;&gt;ara&lt;/span&gt;&lt;/span&gt;&lt;div&gt;&lt;span style=&quot;color: light-dark(rgb(0, 0, 0), rgb(255, 255, 255)); font-weight: normal;&quot;&gt;criar horários&lt;/span&gt;&lt;/div&gt;" style="edgeLabel;html=1;align=center;verticalAlign=middle;resizable=0;points=[];fontSize=16;fontStyle=1;labelBackgroundColor=none;" parent="v3zNFvLb96tHzi2F_7EQ-12" vertex="1" connectable="0">
          <mxGeometry x="0.4375" y="-1" relative="1" as="geometry">
            <mxPoint x="55" y="49" as="offset" />
          </mxGeometry>
        </mxCell>
        <mxCell id="v3zNFvLb96tHzi2F_7EQ-24" value="&lt;span style=&quot;font-weight: normal;&quot;&gt;4: Apresentação&lt;/span&gt;&lt;div&gt;&lt;span style=&quot;font-weight: normal;&quot;&gt;dos horários&lt;/span&gt;&lt;/div&gt;&lt;div&gt;&lt;span style=&quot;font-weight: normal;&quot;&gt;gerados&lt;/span&gt;&lt;/div&gt;" style="edgeLabel;html=1;align=center;verticalAlign=middle;resizable=0;points=[];fontSize=16;fontStyle=1;labelBackgroundColor=none;" parent="v3zNFvLb96tHzi2F_7EQ-12" vertex="1" connectable="0">
          <mxGeometry x="0.4375" y="-1" relative="1" as="geometry">
            <mxPoint x="165" y="-31" as="offset" />
          </mxGeometry>
        </mxCell>
        <mxCell id="v3zNFvLb96tHzi2F_7EQ-25" value="&lt;span style=&quot;font-weight: normal;&quot;&gt;5: Pedido para&amp;nbsp;&lt;/span&gt;&lt;div&gt;&lt;span style=&quot;font-weight: normal;&quot;&gt;exportar os&amp;nbsp;&lt;/span&gt;&lt;/div&gt;&lt;div&gt;&lt;span style=&quot;font-weight: normal;&quot;&gt;horários gerados&lt;/span&gt;&lt;/div&gt;" style="edgeLabel;html=1;align=center;verticalAlign=middle;resizable=0;points=[];fontSize=16;fontStyle=1;labelBackgroundColor=none;" parent="v3zNFvLb96tHzi2F_7EQ-12" vertex="1" connectable="0">
          <mxGeometry x="0.4375" y="-1" relative="1" as="geometry">
            <mxPoint x="315" y="-31" as="offset" />
          </mxGeometry>
        </mxCell>
        <mxCell id="v3zNFvLb96tHzi2F_7EQ-17" value="" style="endArrow=classic;html=1;rounded=0;entryX=0;entryY=0.5;entryDx=0;entryDy=0;edgeStyle=orthogonalEdgeStyle;" parent="1" source="v3zNFvLb96tHzi2F_7EQ-2" target="v3zNFvLb96tHzi2F_7EQ-10" edge="1">
          <mxGeometry width="50" height="50" relative="1" as="geometry">
            <mxPoint x="-576.2" y="300" as="sourcePoint" />
            <mxPoint x="-496.2" y="500" as="targetPoint" />
            <Array as="points">
              <mxPoint x="-576.2" y="496" />
            </Array>
          </mxGeometry>
        </mxCell>
        <mxCell id="v3zNFvLb96tHzi2F_7EQ-18" value="&lt;span style=&quot;font-weight: normal;&quot;&gt;2: Apresentação&lt;br&gt;dos dados&lt;/span&gt;" style="edgeLabel;html=1;align=center;verticalAlign=middle;resizable=0;points=[];fontSize=16;fontStyle=1;labelBackgroundColor=none;" parent="v3zNFvLb96tHzi2F_7EQ-17" vertex="1" connectable="0">
          <mxGeometry x="-0.2361" y="2" relative="1" as="geometry">
            <mxPoint x="-69" y="7" as="offset" />
          </mxGeometry>
        </mxCell>
        <mxCell id="v3zNFvLb96tHzi2F_7EQ-10" value="" style="shape=ellipse;fillColor=none;strokeColor=none;html=1;sketch=0;" parent="1" vertex="1">
          <mxGeometry x="-467.2" y="492" width="10" height="7" as="geometry" />
        </mxCell>
        <mxCell id="v3zNFvLb96tHzi2F_7EQ-22" style="rounded=0;orthogonalLoop=1;jettySize=auto;html=1;exitX=0.921;exitY=1.006;exitDx=0;exitDy=0;exitPerimeter=0;entryX=1;entryY=0.5;entryDx=0;entryDy=0;edgeStyle=orthogonalEdgeStyle;startArrow=none;startFill=0;endArrow=classic;endFill=1;" parent="1" source="v3zNFvLb96tHzi2F_7EQ-2" target="v3zNFvLb96tHzi2F_7EQ-20" edge="1">
          <mxGeometry relative="1" as="geometry">
            <mxPoint x="-426.2" y="410" as="targetPoint" />
            <Array as="points">
              <mxPoint x="-323.2" y="474" />
            </Array>
          </mxGeometry>
        </mxCell>
        <mxCell id="v3zNFvLb96tHzi2F_7EQ-20" value="" style="shape=ellipse;fillColor=none;strokeColor=none;html=1;sketch=0;" parent="1" vertex="1">
          <mxGeometry x="-425.2" y="470" width="9" height="8.5" as="geometry" />
        </mxCell>
        <mxCell id="v3zNFvLb96tHzi2F_7EQ-23" style="edgeStyle=orthogonalEdgeStyle;rounded=0;orthogonalLoop=1;jettySize=auto;html=1;exitX=1;exitY=0.5;exitDx=0;exitDy=0;endArrow=classic;endFill=1;startArrow=none;startFill=0;" parent="1" source="v3zNFvLb96tHzi2F_7EQ-21" target="v3zNFvLb96tHzi2F_7EQ-2" edge="1">
          <mxGeometry relative="1" as="geometry">
            <mxPoint x="-311.2" y="300" as="targetPoint" />
            <mxPoint x="-396.2" y="500" as="sourcePoint" />
            <Array as="points">
              <mxPoint x="-306.2" y="495" />
            </Array>
          </mxGeometry>
        </mxCell>
        <mxCell id="v3zNFvLb96tHzi2F_7EQ-21" value="" style="shape=ellipse;fillColor=none;strokeColor=none;html=1;sketch=0;" parent="1" vertex="1">
          <mxGeometry x="-429.2" y="490" width="13" height="10" as="geometry" />
        </mxCell>
        <mxCell id="xEwKgiD-SIQyZzkMuDlU-2" value="&lt;font style=&quot;color: rgb(0, 0, 0); font-weight: normal;&quot;&gt;Dados com o formato xml&lt;/font&gt;&lt;div style=&quot;color: rgb(0, 0, 0);&quot;&gt;&lt;span style=&quot;font-weight: normal;&quot;&gt;(Padrão ITC2019)&lt;/span&gt;&lt;/div&gt;" style="sketch=0;outlineConnect=0;fontColor=#232F3E;gradientColor=none;fillColor=#232F3D;strokeColor=none;dashed=0;verticalLabelPosition=bottom;verticalAlign=top;align=center;html=1;fontSize=16;fontStyle=1;aspect=fixed;pointerEvents=1;shape=mxgraph.aws4.document;" parent="1" vertex="1">
          <mxGeometry x="-800" y="116" width="73.08" height="100" as="geometry" />
        </mxCell>
        <mxCell id="xEwKgiD-SIQyZzkMuDlU-3" value="&lt;span style=&quot;color: rgb(0, 0, 0); font-weight: normal;&quot;&gt;Horários&lt;/span&gt;&lt;div style=&quot;color: rgb(0, 0, 0);&quot;&gt;&lt;span style=&quot;font-weight: normal;&quot;&gt;(Formato XML, PNG&lt;span style=&quot;background-color: transparent; color: light-dark(rgb(0, 0, 0), rgb(255, 255, 255));&quot;&gt;)&lt;/span&gt;&lt;/span&gt;&lt;/div&gt;" style="sketch=0;outlineConnect=0;fontColor=#232F3E;gradientColor=none;fillColor=#232F3D;strokeColor=none;dashed=0;verticalLabelPosition=bottom;verticalAlign=top;align=center;html=1;fontSize=16;fontStyle=1;aspect=fixed;pointerEvents=1;shape=mxgraph.aws4.document;" parent="1" vertex="1">
          <mxGeometry x="-130" y="115" width="73.08" height="100" as="geometry" />
        </mxCell>
      </root>
    </mxGraphModel>
  </diagram>
</mxfile>
